# xmcd
#
# Track frame offsets: 
#        150
#        16596
#        30130
#        46158
#        61623
#        79888
#        96966
#        111878
#        127186
#        142130
#        161276
#        176092
#        195824
#        217300
#
# Disc length: 3121 seconds
#
# Revision: 0
# Processed by: cddbd v1.5.2PL0 Copyright (c) Steve Scherf et al.
# Submitted via: ExactAudioCopy v0.99pb5
#
DISCID=b30c2f0e
DTITLE=Jon Short - Live at Terra Blues, NYC
DYEAR=2008
DGENRE=Blues
TTITLE0=One Kind of Favor
TTITLE1=Bad Luck Blues
TTITLE2=Depot Blues
TTITLE3=Turn Your Money Green
TTITLE4=Me and the Devil
TTITLE5=M&O BLues
TTITLE6=Barefoot Blues
TTITLE7=One Dime Blues
TTITLE8=Hamhound Crave
TTITLE9=Miss Maybelle
TTITLE10=Michigan Water
TTITLE11=Queen Bee
TTITLE12=It'll Be Me
TTITLE13=Hidden Track
EXTD=
EXTT0=
EXTT1=
EXTT2=
EXTT3=
EXTT4=
EXTT5=
EXTT6=
EXTT7=
EXTT8=
EXTT9=
EXTT10=
EXTT11=
EXTT12=
EXTT13=
PLAYORDER=
